<svg id="Layer_1" data-name="Layer 1" xmlns="http://www.w3.org/2000/svg" viewBox="0 0 350.98 162.55"><defs><style>.cls-1{fill:#16323e;}.cls-2{fill:#78b53e;}</style></defs><path class="cls-1" d="M9.75,97.41l-2-77.48c-1.08.08-2.1.2-3.07.35s-1.84.31-2.61.46L-.21,10.55Q3,9.86,8.19,9.1T19.42,7.6q6.07-.75,12-1.22c3.94-.3,7.49-.46,10.66-.46A40.89,40.89,0,0,1,57.29,8.58,23.33,23.33,0,0,1,67.71,16.4,20.74,20.74,0,0,1,71.47,29q0,8-3.82,13a16.5,16.5,0,0,1-10.31,6.25l.12.23a17.87,17.87,0,0,1,9,3.48A21.52,21.52,0,0,1,73,60a27.45,27.45,0,0,1,2.49,12.16q0,8.34-4,14A24.21,24.21,0,0,1,60.3,94.57a46.4,46.4,0,0,1-17,2.84ZM23.65,46.1c1.85,0,4,0,6.42-.11s4.83-.19,7.18-.35A45,45,0,0,0,43.1,45a18.37,18.37,0,0,0,9.32-4.52A11.57,11.57,0,0,0,56,31.63a13,13,0,0,0-2.09-7.41,14.34,14.34,0,0,0-5.44-4.87A16,16,0,0,0,41,17.62q-8.46,0-17.37.69Zm2.89,40.31q5.67,0,11.46-.35a69.71,69.71,0,0,0,9.73-1.16q6.5-1.4,9.61-5.27a15.05,15.05,0,0,0,3.13-9.78,10.89,10.89,0,0,0-2.32-7.13,13.85,13.85,0,0,0-6-4.22,22,22,0,0,0-7.93-1.39H23.65v29.3Z"/><path class="cls-1" d="M144.09,98.57q-7.08-3.82-9.15-9.85a14,14,0,0,1-5.1,5.33,28.93,28.93,0,0,1-7.93,3.42,34.44,34.44,0,0,1-9.09,1.21q-9.51,0-15.12-6.19a24.82,24.82,0,0,1-6.19-15.7L89.19,31.17l16.45,2v41q0,5.91,3.12,8.92a11.69,11.69,0,0,0,8.46,3,16.41,16.41,0,0,0,9.09-2.66,13.45,13.45,0,0,0,5.62-7.76V31.17l16.44,2-2,43.66v.7a20.27,20.27,0,0,0,2.26,8.92A29,29,0,0,0,155.2,95Z"/><path class="cls-1" d="M219.59,98.57q-7.07-3.82-9.15-9.85a14,14,0,0,1-5.09,5.33,29,29,0,0,1-7.94,3.42,34.39,34.39,0,0,1-9.09,1.21q-9.49,0-15.11-6.19T167,76.79L164.7,31.17l16.44,2v41q0,5.91,3.13,8.92a11.65,11.65,0,0,0,8.45,3,16.41,16.41,0,0,0,9.09-2.66,13.36,13.36,0,0,0,5.62-7.76V31.17l16.45,2-2,43.66v.7a20.27,20.27,0,0,0,2.26,8.92A28.71,28.71,0,0,0,230.71,95Z"/><path class="cls-1" d="M242.64,99l-2.32-67.86,16.44,2v6.61a26.21,26.21,0,0,1,4.46-4.52A14.8,14.8,0,0,1,267,32.67a45.89,45.89,0,0,1,9.14-.93l2.67,14.13a39.4,39.4,0,0,0-6.95-.69q-11.7,0-15.06,9.38V97.41Z"/><path class="cls-2" d="M312,61.34c-16.41-.23-30,12.08-29.52,30,0,21.07,27.5,63.75,32.25,62.49,4.57.7,26.12-43.41,26.83-62.49C342,73.49,326.82,61.54,312,61.34Z"/><path class="cls-1" d="M312,104.16c-7.43,2.29-13.93-6.3-14.08-14.07C297.77,82,304,74.78,312,76c6.82,1,14.68,7,14.07,14.08C325.55,96.24,318.32,102.21,312,104.16Z"/></svg>